HIERARCHY
ROOT root
{
	OFFSET	0	13.1	24.9
	CHANNELS 6  Xposition Yposition Zposition Xrotation Yrotation Zrotation
	JOINT spine_1
	{
		OFFSET	0	9.99999	0
		CHANNELS 3  Xrotation Yrotation Zrotation
		JOINT spine_2
		{
			OFFSET	0	112	-10
			CHANNELS 3  Xrotation Yrotation Zrotation
			JOINT spine_3
			{
				OFFSET	0	206.5	19.3
				CHANNELS 3  Xrotation Yrotation Zrotation
				JOINT spine_4
				{
					OFFSET	0	110.4	14.6
					CHANNELS 3  Xrotation Yrotation Zrotation
					JOINT neck_1
					{
						OFFSET	0	71.8	-50.3
						CHANNELS 3  Xrotation Yrotation Zrotation
						JOINT neck_2
						{
							OFFSET	0	86.2	-25.8
							CHANNELS 3  Xrotation Yrotation Zrotation
							JOINT head_ee
							{
								OFFSET	0	179.8	-8.7
								CHANNELS 3  Xrotation Yrotation Zrotation
								End Site
								{
									OFFSET	1	0	0
								}
							}
						}
					}
					JOINT left_clavicle
					{
						OFFSET	-43.2	22.4	-70.8
						CHANNELS 3  Xrotation Yrotation Zrotation
						JOINT left_shoulder
						{
							OFFSET	-93.9	-5.79999	48.7
							CHANNELS 3  Xrotation Yrotation Zrotation
							JOINT left_elbow
							{
								OFFSET	-291.4	-30.8	15.2
								CHANNELS 3  Xrotation Yrotation Zrotation
								JOINT left_lowarm_twist
								{
									OFFSET	-110.7	-3.89999	13.6
									CHANNELS 3  Xrotation Yrotation Zrotation
									JOINT left_hand
									{
										OFFSET	-110.7	-3.89999	13.6
										CHANNELS 3  Xrotation Yrotation Zrotation
										JOINT left_ee
										{
											OFFSET	-80.8	-5.10001	12.1
											CHANNELS 3  Xrotation Yrotation Zrotation
											End Site
											{
												OFFSET	1	0	0
											}
										}
									}
								}
							}
						}
					}
					JOINT right_clavicle
					{
						OFFSET	43.2	22.4	-70.8
						CHANNELS 3  Xrotation Yrotation Zrotation
						JOINT right_shoulder
						{
							OFFSET	93.9	-5.79999	48.7
							CHANNELS 3  Xrotation Yrotation Zrotation
							JOINT right_elbow
							{
								OFFSET	291.4	-30.8	15.2
								CHANNELS 3  Xrotation Yrotation Zrotation
								JOINT right_lowarm_twist
								{
									OFFSET	110.7	-3.89999	13.6
									CHANNELS 3  Xrotation Yrotation Zrotation
									JOINT right_hand
									{
										OFFSET	110.7	-3.89999	13.6
										CHANNELS 3  Xrotation Yrotation Zrotation
										JOINT right_ee
										{
											OFFSET	80.8	-5.10001	12.1
											CHANNELS 3  Xrotation Yrotation Zrotation
											End Site
											{
												OFFSET	1	0	0
											}
										}
									}
								}
							}
						}
					}
				}
			}
		}
	}
	JOINT left_hip
	{
		OFFSET	-82.8	-127.5	0.300001
		CHANNELS 3  Xrotation Yrotation Zrotation
		JOINT left_knee
		{
			OFFSET	-28.2	-396.7	2.2
			CHANNELS 3  Xrotation Yrotation Zrotation
			JOINT left_ankle
			{
				OFFSET	-11.7	-411.3	35.4
				CHANNELS 3  Xrotation Yrotation Zrotation
				JOINT left_toes
				{
					OFFSET	0	-60	-88.6
					CHANNELS 3  Xrotation Yrotation Zrotation
					JOINT left_foot_ee
					{
						OFFSET	-22.5	-16.5	-42.2
						CHANNELS 3  Xrotation Yrotation Zrotation
						End Site
						{
							OFFSET	1	0	0
						}
					}
				}
			}
		}
	}
	JOINT right_hip
	{
		OFFSET	82.8	-127.5	0.300001
		CHANNELS 3  Xrotation Yrotation Zrotation
		JOINT right_knee
		{
			OFFSET	28.2	-396.7	2.2
			CHANNELS 3  Xrotation Yrotation Zrotation
			JOINT right_ankle
			{
				OFFSET	11.7	-411.3	35.4
				CHANNELS 3  Xrotation Yrotation Zrotation
				JOINT right_toes
				{
					OFFSET	0	-60	-88.6
					CHANNELS 3  Xrotation Yrotation Zrotation
					JOINT right_foot_ee
					{
						OFFSET	22.5	-16.5	-42.2
						CHANNELS 3  Xrotation Yrotation Zrotation
						End Site
						{
							OFFSET	1	0	0
						}
					}
				}
			}
		}
	}
}
MOTION
Frames: 8
Frame Time: 0.02
3177.02 653.055 -1669.29 17.0802804851 74.6784741272 -12.6204803926 -2.04904 0.052901 -0.378288 -2.04896 0.076865 -0.374155 -2.04941 0.166194 -0.343918 -2.04956 0.109794 -0.365849 -12.4858 3.74881 3.16461 -12.473 5.1071 4.1124 -0.0 0.0 -0.0 -2.71009 23.6082 -0.969228 -17.1235 -17.8927 76.5518 0.521524 -14.4857 0.0662804 -13.7422 -0.681527 1.61534 2.45232 29.8135 25.6001 -0.0 0.0 -0.0 8.25035 27.1205 -14.858 20.2109 19.8164 -55.2112 3.24493 58.1009 -1.80276 57.4677 1.55374 6.86947 0.799604 1.64947 -4.66921 0.0 0.0 0.0 28.2489 12.3306 -10.1661 -2.96347 0.110622 0.441293 9.33544 7.70169 -1.32998 -27.1742 0.0 0.0 -0.0 0.0 -0.0 -15.358 34.851 -11.2994 -15.847 -0.321974 -2.40285 41.9938 -20.4274 5.21936 -6.40464 0.0 0.0 0.0 0.0 0.0 
3104.42308439 663.846 -1663.21331336 13.512465657 74.3653758302 -8.21171712691 -1.80044 -0.170625 -0.407123 -1.80036 -0.144373 -0.417155 -1.79919 -0.0396909 -0.439643 -1.79944 -0.108626 -0.427858 -9.41737 4.44265 1.69866 -9.42358 7.17981 2.72766 -0.0 0.0 -0.0 -1.55384 21.6872 0.313224 -14.2017 -18.3714 74.686 0.580354 -16.0396 0.0817686 -14.7288 -0.745113 1.72443 2.82798 29.3186 27.8275 -0.0 0.0 -0.0 8.56953 27.6597 -15.5031 16.2324 18.4235 -54.5462 2.68684 53.0722 -1.34191 54.888 1.34054 6.61688 0.825487 2.0597 -4.67368 0.0 0.0 0.0 26.4702 12.6871 -8.87009 -5.10532 0.176278 0.763428 10.228 11.1028 -1.45497 -26.677 0.0 0.0 -0.0 0.0 -0.0 -17.0558 36.5331 -11.64 -15.9727 -0.321854 -2.42213 41.6946 -19.0918 5.16073 -6.54427 0.0 0.0 0.0 0.0 0.0 
3082.05384516 670.528 -1660.63182844 13.7097781169 74.3863181597 -8.11374901147 -1.82793 -0.258494 -0.396687 -1.82787 -0.232728 -0.412332 -1.82607 -0.126397 -0.456293 -1.8263 -0.196873 -0.430605 -9.25967 4.44338 2.03276 -9.26105 6.94175 3.04594 -0.0 0.0 -0.0 -1.1733 21.3546 0.805894 -13.3645 -18.0567 74.2543 0.581082 -16.0587 0.0819698 -15.2212 -0.777549 1.77846 2.75652 29.1999 27.3612 -0.0 0.0 -0.0 8.57851 26.2568 -15.6754 14.0506 17.7601 -54.8082 2.59252 52.0848 -1.267 54.0882 1.27678 6.53666 0.899387 1.9894 -5.20049 0.0 0.0 0.0 25.0222 12.9923 -8.64007 -4.97784 0.172708 0.744189 10.5057 11.5437 -1.49375 -26.4775 0.0 0.0 -0.0 0.0 -0.0 -16.8274 36.7087 -11.8577 -17.3748 -0.317652 -2.6372 41.5575 -18.0089 5.125 -6.2771 0.0 0.0 0.0 0.0 0.0 
3058.59278192 671.724 -1658.81454707 13.7920231727 73.6544427863 -7.96695107372 -1.74297 -0.380192 -0.517717 -1.74288 -0.346478 -0.540859 -1.73939 -0.206713 -0.608148 -1.73978 -0.300163 -0.567871 -9.40958 4.19056 1.43685 -9.41675 6.8851 2.41058 -0.0 0.0 -0.0 -0.652226 20.9033 1.49228 -12.7994 -18.2109 73.7717 0.548079 -15.1899 0.073081 -15.9162 -0.824127 1.85427 2.59013 29.402 26.3665 -0.0 0.0 -0.0 8.28791 24.9393 -15.1678 12.0416 18.361 -55.7192 2.6369 52.5549 -1.30212 53.3646 1.22008 6.46333 0.91275 1.44293 -5.51594 0.0 0.0 0.0 23.7651 13.2747 -8.58777 -5.81227 0.195298 0.870252 12.5338 11.7745 -1.76982 -26.0488 0.0 0.0 -0.0 0.0 -0.0 -17.2248 36.9278 -11.2304 -18.3027 -0.311977 -2.77946 41.174 -17.1442 5.07389 -6.35645 0.0 0.0 0.0 0.0 0.0 
3007.43344787 681.583 -1655.19599466 15.650311303 72.9210620055 -9.20340447204 -1.66764 -0.465074 -0.91927 -1.66726 -0.405639 -0.946997 -1.65993 -0.16821 -1.01639 -1.66123 -0.32661 -0.977071 -10.0563 4.48774 1.14439 -10.0722 7.67747 2.23652 -0.0 0.0 -0.0 0.100083 19.7097 2.44709 -10.7732 -19.2193 73.0133 0.576933 -15.9499 0.0808259 -16.9614 -0.895904 1.9672 2.39841 29.9424 25.2979 -0.0 0.0 -0.0 6.88744 22.3182 -12.3352 7.22043 18.6008 -57.9888 2.58739 52.0299 -1.26296 51.7858 1.0996 6.30092 1.00392 0.786709 -6.39931 0.0 0.0 0.0 20.1071 13.9365 -9.03256 -8.59696 0.257351 1.29304 18.7355 9.88602 -2.5755 -22.1849 0.0 0.0 -0.0 0.0 -0.0 -17.0786 36.7611 -10.1645 -21.0362 -0.281883 -3.19776 40.8286 -15.2887 5.01084 -5.8939 0.0 0.0 0.0 0.0 0.0 
2984.80735256 682.249 -1653.93896419 17.1060858787 71.5881059552 -10.1764562996 -1.65167 -0.258371 -1.02992 -1.6511 -0.192315 -1.04427 -1.64696 0.061949 -1.06002 -1.64851 -0.106229 -1.0565 -11.9944 4.15924 0.203795 -12.0261 7.75509 1.36656 -0.0 0.0 -0.0 0.311274 18.6734 2.65113 -9.85017 -19.6366 72.647 0.557576 -15.4407 0.0755894 -18.2399 -0.986492 2.10354 2.12246 29.7577 23.6092 -0.0 0.0 -0.0 6.26102 20.0674 -11.1632 6.09762 19.6996 -59.5069 2.37894 49.6758 -1.10126 51.1537 1.05264 6.23498 0.933165 -0.286751 -6.36159 0.0 0.0 0.0 18.7571 14.1307 -9.37258 -12.0795 0.305925 1.82511 22.3691 8.24433 -3.02085 -20.372 0.0 0.0 -0.0 0.0 -0.0 -15.8086 35.3554 -9.5524 -26.3714 -0.16586 -4.00796 40.9693 -14.0806 5.00503 -5.84165 0.0 0.0 0.0 0.0 0.0 
2984.78977882 682.249 -1654.16061792 17.0479101841 71.5249501434 -10.1151307015 -1.65167 -0.258371 -1.02992 -1.6511 -0.192315 -1.04427 -1.64696 0.061949 -1.06002 -1.64851 -0.106229 -1.0565 -11.9944 4.15924 0.203795 -12.0261 7.75509 1.36656 -0.0 0.0 -0.0 0.311274 18.6734 2.65113 -9.85017 -19.6366 72.647 0.557576 -15.4407 0.0755894 -18.2399 -0.986492 2.10354 2.12246 29.7577 23.6092 -0.0 0.0 -0.0 6.26102 20.0674 -11.1632 6.09762 19.6996 -59.5069 2.37894 49.6758 -1.10126 51.1537 1.05264 6.23498 0.933165 -0.286751 -6.36159 0.0 0.0 0.0 18.7571 14.1307 -9.37258 -12.0795 0.305925 1.82511 22.3691 8.24433 -3.02085 -20.372 0.0 0.0 -0.0 0.0 -0.0 -15.8086 35.3554 -9.5524 -26.3714 -0.16586 -4.00796 40.9693 -14.0806 5.00503 -5.84165 0.0 0.0 0.0 0.0 0.0 
2984.76581729 682.249 -1654.46821314 16.9678550979 71.4372840709 -10.0307039406 -1.65167 -0.258371 -1.02992 -1.6511 -0.192315 -1.04427 -1.64696 0.061949 -1.06002 -1.64851 -0.106229 -1.0565 -11.9944 4.15924 0.203795 -12.0261 7.75509 1.36656 -0.0 0.0 -0.0 0.311274 18.6734 2.65113 -9.85017 -19.6366 72.647 0.557576 -15.4407 0.0755894 -18.2399 -0.986492 2.10354 2.12246 29.7577 23.6092 -0.0 0.0 -0.0 6.26102 20.0674 -11.1632 6.09762 19.6996 -59.5069 2.37894 49.6758 -1.10126 51.1537 1.05264 6.23498 0.933165 -0.286751 -6.36159 0.0 0.0 0.0 18.7571 14.1307 -9.37258 -12.0795 0.305925 1.82511 22.3691 8.24433 -3.02085 -20.372 0.0 0.0 -0.0 0.0 -0.0 -15.8086 35.3554 -9.5524 -26.3714 -0.16586 -4.00796 40.9693 -14.0806 5.00503 -5.84165 0.0 0.0 0.0 0.0 0.0 
